<?xml version="1.0" encoding="UTF-8" standalone="no"?>
<!-- Created with Inkscape (http://www.inkscape.org/) -->

<svg
   xmlns:dc="http://purl.org/dc/elements/1.1/"
   xmlns:cc="http://creativecommons.org/ns#"
   xmlns:rdf="http://www.w3.org/1999/02/22-rdf-syntax-ns#"
   xmlns:svg="http://www.w3.org/2000/svg"
   xmlns="http://www.w3.org/2000/svg"
   xmlns:sodipodi="http://sodipodi.sourceforge.net/DTD/sodipodi-0.dtd"
   xmlns:inkscape="http://www.inkscape.org/namespaces/inkscape"
   width="459.37656"
   height="401.375"
   id="svg13872"
   version="1.1"
   inkscape:version="0.48.2 r9819"
   sodipodi:docname="AJAX1.svg">
  <defs
     id="defs13874">
    <inkscape:perspective
       sodipodi:type="inkscape:persp3d"
       inkscape:vp_x="0 : 526.18109 : 1"
       inkscape:vp_y="0 : 1000 : 0"
       inkscape:vp_z="744.09448 : 526.18109 : 1"
       inkscape:persp3d-origin="372.04724 : 350.78739 : 1"
       id="perspective13880" />
    <inkscape:perspective
       id="perspective13862"
       inkscape:persp3d-origin="0.5 : 0.33333333 : 1"
       inkscape:vp_z="1 : 0.5 : 1"
       inkscape:vp_y="0 : 1000 : 0"
       inkscape:vp_x="0 : 0.5 : 1"
       sodipodi:type="inkscape:persp3d" />
    <inkscape:perspective
       id="perspective13909"
       inkscape:persp3d-origin="0.5 : 0.33333333 : 1"
       inkscape:vp_z="1 : 0.5 : 1"
       inkscape:vp_y="0 : 1000 : 0"
       inkscape:vp_x="0 : 0.5 : 1"
       sodipodi:type="inkscape:persp3d" />
    <inkscape:perspective
       id="perspective13946"
       inkscape:persp3d-origin="0.5 : 0.33333333 : 1"
       inkscape:vp_z="1 : 0.5 : 1"
       inkscape:vp_y="0 : 1000 : 0"
       inkscape:vp_x="0 : 0.5 : 1"
       sodipodi:type="inkscape:persp3d" />
    <inkscape:perspective
       id="perspective13983"
       inkscape:persp3d-origin="0.5 : 0.33333333 : 1"
       inkscape:vp_z="1 : 0.5 : 1"
       inkscape:vp_y="0 : 1000 : 0"
       inkscape:vp_x="0 : 0.5 : 1"
       sodipodi:type="inkscape:persp3d" />
    <inkscape:perspective
       id="perspective14020"
       inkscape:persp3d-origin="0.5 : 0.33333333 : 1"
       inkscape:vp_z="1 : 0.5 : 1"
       inkscape:vp_y="0 : 1000 : 0"
       inkscape:vp_x="0 : 0.5 : 1"
       sodipodi:type="inkscape:persp3d" />
    <inkscape:perspective
       id="perspective14057"
       inkscape:persp3d-origin="0.5 : 0.33333333 : 1"
       inkscape:vp_z="1 : 0.5 : 1"
       inkscape:vp_y="0 : 1000 : 0"
       inkscape:vp_x="0 : 0.5 : 1"
       sodipodi:type="inkscape:persp3d" />
    <inkscape:perspective
       id="perspective14100"
       inkscape:persp3d-origin="0.5 : 0.33333333 : 1"
       inkscape:vp_z="1 : 0.5 : 1"
       inkscape:vp_y="0 : 1000 : 0"
       inkscape:vp_x="0 : 0.5 : 1"
       sodipodi:type="inkscape:persp3d" />
    <inkscape:perspective
       id="perspective14137"
       inkscape:persp3d-origin="0.5 : 0.33333333 : 1"
       inkscape:vp_z="1 : 0.5 : 1"
       inkscape:vp_y="0 : 1000 : 0"
       inkscape:vp_x="0 : 0.5 : 1"
       sodipodi:type="inkscape:persp3d" />
    <inkscape:perspective
       id="perspective14174"
       inkscape:persp3d-origin="0.5 : 0.33333333 : 1"
       inkscape:vp_z="1 : 0.5 : 1"
       inkscape:vp_y="0 : 1000 : 0"
       inkscape:vp_x="0 : 0.5 : 1"
       sodipodi:type="inkscape:persp3d" />
    <inkscape:perspective
       id="perspective14217"
       inkscape:persp3d-origin="0.5 : 0.33333333 : 1"
       inkscape:vp_z="1 : 0.5 : 1"
       inkscape:vp_y="0 : 1000 : 0"
       inkscape:vp_x="0 : 0.5 : 1"
       sodipodi:type="inkscape:persp3d" />
    <inkscape:perspective
       id="perspective14254"
       inkscape:persp3d-origin="0.5 : 0.33333333 : 1"
       inkscape:vp_z="1 : 0.5 : 1"
       inkscape:vp_y="0 : 1000 : 0"
       inkscape:vp_x="0 : 0.5 : 1"
       sodipodi:type="inkscape:persp3d" />
    <inkscape:perspective
       id="perspective14291"
       inkscape:persp3d-origin="0.5 : 0.33333333 : 1"
       inkscape:vp_z="1 : 0.5 : 1"
       inkscape:vp_y="0 : 1000 : 0"
       inkscape:vp_x="0 : 0.5 : 1"
       sodipodi:type="inkscape:persp3d" />
    <inkscape:perspective
       id="perspective14328"
       inkscape:persp3d-origin="0.5 : 0.33333333 : 1"
       inkscape:vp_z="1 : 0.5 : 1"
       inkscape:vp_y="0 : 1000 : 0"
       inkscape:vp_x="0 : 0.5 : 1"
       sodipodi:type="inkscape:persp3d" />
    <inkscape:perspective
       id="perspective14365"
       inkscape:persp3d-origin="0.5 : 0.33333333 : 1"
       inkscape:vp_z="1 : 0.5 : 1"
       inkscape:vp_y="0 : 1000 : 0"
       inkscape:vp_x="0 : 0.5 : 1"
       sodipodi:type="inkscape:persp3d" />
    <inkscape:perspective
       id="perspective14421"
       inkscape:persp3d-origin="0.5 : 0.33333333 : 1"
       inkscape:vp_z="1 : 0.5 : 1"
       inkscape:vp_y="0 : 1000 : 0"
       inkscape:vp_x="0 : 0.5 : 1"
       sodipodi:type="inkscape:persp3d" />
    <inkscape:perspective
       id="perspective14461"
       inkscape:persp3d-origin="0.5 : 0.33333333 : 1"
       inkscape:vp_z="1 : 0.5 : 1"
       inkscape:vp_y="0 : 1000 : 0"
       inkscape:vp_x="0 : 0.5 : 1"
       sodipodi:type="inkscape:persp3d" />
    <inkscape:perspective
       id="perspective14572"
       inkscape:persp3d-origin="0.5 : 0.33333333 : 1"
       inkscape:vp_z="1 : 0.5 : 1"
       inkscape:vp_y="0 : 1000 : 0"
       inkscape:vp_x="0 : 0.5 : 1"
       sodipodi:type="inkscape:persp3d" />
  </defs>
  <sodipodi:namedview
     id="base"
     pagecolor="#ffffff"
     bordercolor="#666666"
     borderopacity="1.0"
     inkscape:pageopacity="0.0"
     inkscape:pageshadow="2"
     inkscape:zoom="1.4"
     inkscape:cx="193.99797"
     inkscape:cy="104.67387"
     inkscape:document-units="px"
     inkscape:current-layer="layer1"
     showgrid="false"
     inkscape:window-width="1280"
     inkscape:window-height="1004"
     inkscape:window-x="-8"
     inkscape:window-y="-8"
     inkscape:window-maximized="1"
     fit-margin-top="0"
     fit-margin-left="0"
     fit-margin-right="0"
     fit-margin-bottom="0" />
  <metadata
     id="metadata13877">
    <rdf:RDF>
      <cc:Work
         rdf:about="">
        <dc:format>image/svg+xml</dc:format>
        <dc:type
           rdf:resource="http://purl.org/dc/dcmitype/StillImage" />
        <dc:title />
      </cc:Work>
    </rdf:RDF>
  </metadata>
  <g
     inkscape:label="Layer 1"
     inkscape:groupmode="layer"
     id="layer1"
     transform="translate(482.90713,-557.53125)">
    <path
       d="M -29.672903,921.44802 -231.9929,572.60302 c -10.8,-19.08 -30.6,-19.08 -41.76,0 l -203.4,349.565 c -11.88,20.155 -1.8,35.995 21.96,35.995 l 402.839997,0 c 25.92,0 34.92,-15.115 22.68,-36.715"
       style="fill:#ffffff;fill-opacity:1;fill-rule:nonzero;stroke:#000000;stroke-width:1.5;stroke-miterlimit:4;stroke-opacity:1;stroke-dasharray:none"
       id="path4974"
       inkscape:connector-curvature="0" />
    <path
       d="m -252.5129,636.32302 156.959997,272.16 -316.799997,0 159.84,-272.16"
       style="fill:#f9a70c;fill-opacity:1;fill-rule:nonzero;stroke:none"
       id="path4978"
       inkscape:connector-curvature="0" />
    <path
       d="m -413.0729,908.84802 314.639997,0 -237.959997,-136.09 -76.68,136.09"
       style="fill:#000000;fill-opacity:1;fill-rule:nonzero;stroke:none"
       id="path4982"
       inkscape:connector-curvature="0" />
    <path
       d="m -413.0729,908.84802 314.639997,0 -237.959997,-136.09 -76.68,136.09 z"
       style="fill:none;stroke:#000000;stroke-width:1.08000004;stroke-linecap:butt;stroke-linejoin:miter;stroke-miterlimit:4;stroke-opacity:1;stroke-dasharray:none"
       id="path4984"
       inkscape:connector-curvature="0" />
    <path
       d="m -253.9529,908.48302 158.399997,0 -156.959997,-272.16 -1.44,2.52 0,-67.68 c 5.04,-0.36 10.08,2.88 14.04,9.36 l 200.159997,344.88 c 7.56,12.605 0,21.96 -14.04,21.96 l -200.159997,0 0,-38.88 z m -158.4,0 158.4,0 0,38.88 -196.92,0 c -15.84,0 -22.68,-10.44 -15.84,-22.315 l 199.44,-344.89 c 3.6,-6.115 8.28,-8.995 13.32,-8.995 l 0,67.68 -158.4,269.64"
       style="fill:#d21d24;fill-opacity:1;fill-rule:nonzero;stroke:none"
       id="path4986"
       inkscape:connector-curvature="0" />
    <path
       d="m -259.7129,755.83802 -21.24,31.33 -8.64,-6.13 15.84,-23.39 c -3.24,-0.725 -5.76,-1.45 -7.92,-2.52 l 2.88,-4.325 c 5.04,2.88 9.36,3.24 13.68,1.08 l 5.4,3.955"
       style="fill:#000000;fill-opacity:1;fill-rule:nonzero;stroke:none"
       id="path4988"
       inkscape:connector-curvature="0" />
    <path
       d="m -260.4329,787.51802 -9,5.4 c 1.08,2.52 2.88,4.69 5.76,6.485 8.64,5.76 16.92,3.605 24.12,-7.195 5.04,-7.565 6.12,-13.68 3.96,-18.725 l -9.36,5.405 c -1.08,1.79 -2.52,3.955 -4.32,6.47 -6.12,9.37 -10.08,12.965 -12.6,11.525 -1.8,-1.08 -1.08,-4.315 1.44,-9.365"
       style="fill:#000000;fill-opacity:1;fill-rule:nonzero;stroke:none"
       id="path4990"
       inkscape:connector-curvature="0" />
    <path
       d="m -244.9529,778.88802 9.36,-5.405 c -1.44,-2.515 -3.24,-4.68 -6.12,-6.48 -8.64,-6.12 -16.56,-3.595 -24.12,7.205 -5.04,7.195 -6.12,13.67 -3.6,18.71 l 9,-5.4 c 1.08,-1.795 2.52,-4.315 4.32,-6.48 6.12,-9.36 10.44,-12.95 12.6,-11.515 1.8,1.085 1.08,4.325 -1.44,9.365"
       style="fill:#000000;fill-opacity:1;fill-rule:nonzero;stroke:none"
       id="path4992"
       inkscape:connector-curvature="0" />
    <path
       d="m -219.7529,822.08302 -4.68,2.515 c 0.72,1.08 1.8,2.17 3.24,3.245 4.68,3.24 9,2.155 12.6,-3.245 2.88,-3.59 3.24,-7.195 1.44,-9.715 l -4.32,2.52 c -0.72,1.08 -1.44,2.16 -2.52,3.605 -2.88,4.67 -5.04,6.475 -6.48,5.395 -1.08,-0.365 -0.72,-1.805 0.72,-4.32"
       style="fill:#000000;fill-opacity:1;fill-rule:nonzero;stroke:none"
       id="path4994"
       inkscape:connector-curvature="0" />
    <path
       d="m -211.4729,817.40302 4.32,-2.52 c -0.72,-1.435 -1.8,-2.16 -3.24,-3.245 -4.68,-3.23 -9,-2.155 -12.6,3.245 -2.88,3.6 -3.24,6.84 -1.44,9.715 l 4.68,-2.515 c 0.36,-1.075 1.08,-2.16 2.16,-3.6 2.88,-4.68 5.4,-6.48 6.48,-5.76 0.72,0.725 0.72,2.16 -0.36,4.68"
       style="fill:#000000;fill-opacity:1;fill-rule:nonzero;stroke:none"
       id="path4996"
       inkscape:connector-curvature="0" />
    <path
       d="m -229.1129,792.91802 -4.68,2.885 c 0.72,1.08 1.8,2.16 3.24,2.88 4.68,3.24 9,2.155 12.6,-3.245 2.52,-3.59 3.24,-6.84 1.44,-9.715 l -4.68,2.875 c -0.36,0.725 -1.08,2.165 -2.16,3.25 -2.88,4.675 -5.4,6.475 -6.48,5.76 -0.72,-0.725 -0.36,-2.17 0.72,-4.69"
       style="fill:#000000;fill-opacity:1;fill-rule:nonzero;stroke:none"
       id="path4998"
       inkscape:connector-curvature="0" />
    <path
       d="m -239.9129,814.88302 35.64,-21.605 3.6,2.525 -36,21.235 -3.24,-2.155"
       style="fill:#000000;fill-opacity:1;fill-rule:nonzero;stroke:none"
       id="path5000"
       inkscape:connector-curvature="0" />
    <path
       d="m -221.1929,788.59802 4.68,-2.875 c -0.72,-1.08 -1.8,-2.16 -2.88,-3.24 -5.04,-3.235 -9.36,-2.16 -12.96,3.24 -2.52,3.6 -2.88,7.195 -1.44,10.08 l 4.68,-2.885 c 0.72,-1.07 1.44,-2.155 2.16,-3.595 3.24,-4.325 5.4,-6.12 6.48,-5.4 0.72,0.365 0.72,2.16 -0.72,4.675"
       style="fill:#000000;fill-opacity:1;fill-rule:nonzero;stroke:none"
       id="path5002"
       inkscape:connector-curvature="0" />
    <path
       d="m -317.6729,826.76802 12.24,-21.965 71.28,41.035 3.96,-6.47 22.32,36.355 -40.32,0.725 3.96,-7.2 -73.44,-42.48"
       style="fill:#ffffff;fill-opacity:1;fill-rule:nonzero;stroke:none"
       id="path5004"
       inkscape:connector-curvature="0" />
    <path
       d="m -317.6729,826.76802 12.24,-21.965 71.28,41.035 3.96,-6.47 22.32,36.355 -40.32,0.725 3.96,-7.2 -73.44,-42.48 z"
       style="fill:none;stroke:none;stroke-width:1.08000004000000010;stroke-linecap:butt;stroke-linejoin:miter;stroke-miterlimit:4;stroke-opacity:1;stroke-dasharray:none"
       id="path5006"
       inkscape:connector-curvature="0" />
  </g>
</svg>
