<svg xmlns="http://www.w3.org/2000/svg" viewBox="-2 -2 604 604"><rect x="-1" y="-1" width="602" height="602" rx="51" fill="#000"/><rect width="600" height="600" rx="50" fill="#fff"/><rect x="10" y="10" width="580" height="580" rx="40" fill="#1e50a3"/><path fill="#fff" fill-rule="evenodd" d="M83,67H144.6A45.4,45.4 0 0 1 144.6,157.7H107V211H83ZM107,91V133.7H144.6A21.4,21.4 0 0 0 144.6,91Z"/><path fill="#fff" d="M444.98 157.36Q444.98 162.95 444.54 168.16Q443.87 181.3 436.57 188.65Q429.28 196 416.89 196Q405.28 196 398.14 189.17Q391.01 182.34 389.57 168.81L389.13 163.99Q389.13 162.04 390.9 162.04H407.93Q409.59 162.04 409.81 163.99Q409.81 165.03 410.03 166.73Q411.36 175.31 416.89 175.31Q419.76 175.31 421.59 173.04Q423.41 170.76 423.97 166.6Q424.41 162.17 424.41 157.23Q424.41 153.58 423.86 148.51Q423.3 144.61 421.48 142.53Q419.65 140.44 416.89 140.44Q411.36 140.44 409.81 146.43Q409.37 148.25 407.93 148.25H390.68Q390.02 148.25 389.52 147.67Q389.02 147.08 389.02 146.3V77.08Q389.02 76.17 389.52 75.59Q390.02 75 390.68 75H441.99Q442.77 75 443.27 75.59Q443.76 76.17 443.76 77.08V93.61Q443.76 94.52 443.27 95.1Q442.77 95.69 441.99 95.69H410.25Q409.48 95.69 409.48 96.47V125.22Q409.48 125.74 409.76 125.94Q410.03 126.13 410.36 125.61Q412.8 122.62 416.17 121.12Q419.54 119.63 423.3 119.63Q432.59 119.63 438.18 126.78Q443.76 133.94 444.32 146.82Q444.98 153.32 444.98 157.36Z"/><path fill="#fff" d="M470.4 130V112.28H479.82V122.02H516.17V130ZM461.84 108.49V100.12H523.16V108.49H498.71V117.97H489.3V108.49ZM470.27 95.28V69H479.62V75.15H505.64V69H514.99V95.28ZM479.62 87.76H505.64V82.08H479.62Z"/><g transform="translate(0,0) scale(1.0)"><path fill="#fff" fill-rule="evenodd" d="M128,260H482Q487,260 487,265V371L470,383H133Q123,383 123,373V265Q123,260 128,260ZM162,281H228V325H162ZM237,281H302V325H237ZM311,281H377V325H311ZM385,281H452V325H385ZM461,281H481V325H461ZM129,281H147V327L129,339ZM129,357L137,353V372H129Z"/><path fill="#1e50a3" d="M163,383A33,33 0 0 1 229,383ZM370,383A33,33 0 0 1 436,383Z"/><circle cx="196" cy="373" r="29" fill="#fff"/><circle cx="196" cy="373" r="11.5" fill="#1e50a3"/><circle cx="403" cy="373" r="29" fill="#fff"/><circle cx="403" cy="373" r="11.5" fill="#1e50a3"/><rect x="169" y="251" width="55" height="7" rx="2" fill="#fff"/><rect x="348" y="251" width="55" height="7" rx="2" fill="#fff"/></g><path fill="#fff" d="M63 515.13Q63 508.77 69.83 505.46Q76.66 502.16 87.76 502.16Q98.93 502.16 105.76 505.46Q112.59 508.77 112.59 515.13Q112.59 521.42 105.76 524.69Q98.93 527.95 87.76 527.95Q76.59 527.95 69.8 524.69Q63 521.42 63 515.13ZM73.9 515.13Q73.9 519.49 87.76 519.49Q101.69 519.49 101.69 515.13Q101.69 510.7 87.76 510.7Q73.9 510.7 73.9 515.13ZM56 499.17V490.06H83.05V480.79H92.88V490.06H119.12V499.17ZM64.61 485.15V451.61H111.52V460.16H74.51V464.51H111.11V472.17H74.51V476.52H112.12V485.15Z M138 514.65V505.62H183.97V529H174.28V514.65ZM174.07 502.72V450H183.9V474.02H192.04V484.66H183.9V502.72ZM137.8 460.64V451.77H162.63V460.64ZM129.12 473.22V464.51H169.5V473.22ZM131.54 488.13Q131.54 482.16 136.93 478.94Q142.31 475.72 150.19 475.72Q158.06 475.72 163.41 478.94Q168.76 482.16 168.76 488.13Q168.76 494.09 163.44 497.32Q158.13 500.54 150.19 500.54Q142.24 500.54 136.89 497.32Q131.54 494.09 131.54 488.13ZM141.64 488.13Q141.64 492.56 150.19 492.56Q153.68 492.56 156.21 491.48Q158.73 490.39 158.73 488.13Q158.73 483.7 150.19 483.7Q146.48 483.7 144.06 484.78Q141.64 485.87 141.64 488.13Z M230.44 487.97V476.76H245.85V450H255.81V528.03H245.85V487.97ZM202.04 513.52V455.64H211.46V473.78H224.72V455.64H234.14V513.52ZM211.46 503.04H224.72V484.34H211.46Z M265.81 519.65V509.57H329V519.65ZM268.97 489.02Q273.08 487.08 277.08 484.1Q281.09 481.12 284.69 477.21Q288.29 473.3 290.51 468.38Q292.73 463.46 292.73 458.46V454.84H302.42V458.38Q302.42 463.3 304.64 468.18Q306.86 473.06 310.49 476.92Q314.13 480.79 318.06 483.82Q322 486.84 326.04 488.86L320.66 497.32Q314.46 494.26 307.7 488.01Q300.94 481.76 297.57 474.99Q294.28 481.84 287.61 488.05Q280.95 494.26 274.36 497.48Z M357.6 513.54Q357.6 506.22 364.05 502.15Q370.49 498.08 380.84 498.08Q391.32 498.08 397.77 502.11Q404.21 506.14 404.21 513.54Q404.21 520.86 397.67 524.93Q391.13 529 380.84 529Q370.49 529 364.05 524.93Q357.6 520.86 357.6 513.54ZM367.64 513.54Q367.64 519.56 380.91 519.56Q387 519.56 390.62 517.98Q394.24 516.39 394.24 513.54Q394.24 507.52 380.91 507.52Q367.64 507.52 367.64 513.54ZM351 493.77V483.93H410.56V493.77ZM353.86 471.64Q359.38 469.77 364.21 467.04Q369.03 464.32 372.72 460.17Q376.4 456.02 376.4 451.71V450H385.48V451.71Q385.48 454.96 387.57 458.14Q389.67 461.31 393.13 463.83Q396.59 466.35 400.31 468.27Q404.02 470.18 407.89 471.56L403.77 480.27Q397.92 478.39 391.26 474.16Q384.59 469.93 380.91 464.56Q377.35 469.93 370.94 474.04Q364.53 478.15 357.98 480.35Z M461.58 528.76V450H470.98V483.93H479.74V495.15H470.98V528.76ZM428.37 464.32V453.74H450.66V464.32ZM420.56 480.84V470.42H456.95V480.84ZM422.66 501.91Q422.66 494.18 427.36 489.46Q432.05 484.74 439.48 484.74Q446.98 484.74 451.64 489.46Q456.31 494.18 456.31 501.91Q456.31 509.64 451.64 514.36Q446.98 519.07 439.48 519.07Q431.99 519.07 427.32 514.36Q422.66 509.64 422.66 501.91ZM431.86 501.91Q431.86 505.49 434.15 507.32Q436.44 509.15 439.48 509.15Q442.4 509.15 444.72 507.28Q447.04 505.41 447.04 501.91Q447.04 498.33 444.79 496.5Q442.53 494.67 439.48 494.67Q436.37 494.67 434.12 496.5Q431.86 498.33 431.86 501.91Z M531.84 528.76V450H541.24V483.93H550V495.15H541.24V528.76ZM499.33 463.91V453.42H521.68V463.91ZM489.74 511.51Q492.92 509.15 495.36 506.79Q497.8 504.43 500.34 501.09Q502.88 497.76 504.25 493.53Q505.62 489.3 505.62 484.58V481.16H492.53V470.67H527.33V481.16H514.82V483.76Q514.82 498 528.92 510.29L522.82 517.61Q519.84 515.25 515.9 510.33Q511.96 505.41 510.25 501.26Q508.03 506.46 503.87 511.51Q499.71 516.55 495.96 519.07Z"/></svg>
