<svg xmlns="http://www.w3.org/2000/svg" viewBox="0 0 600 200"><path fill="#ffffff" d="M20 0H580A20 20 0 0 1 600 20V180A20 20 0 0 1 580 200H20A20 20 0 0 1 0 180V20A20 20 0 0 1 20 0Z"/><path fill="#000000" fill-rule="evenodd" d="M20 5H580A15 15 0 0 1 595 20V180A15 15 0 0 1 580 195H20A15 15 0 0 1 5 180V20A15 15 0 0 1 20 5ZM20 10H580A10 10 0 0 1 590 20V180A10 10 0 0 1 580 190H20A10 10 0 0 1 10 180V20A10 10 0 0 1 20 10Z"/><path fill="#000000" d="M76.85 122.68H110.85V113.58H100.23V66.14H91.9C88.31 68.35 84.41 69.8 78.76 70.87V77.83H89V113.58H76.85ZM142.13 123.75C153.59 123.75 161.23 113.66 161.23 94.18C161.23 74.69 153.59 65.07 142.13 65.07C130.59 65.07 122.95 74.62 122.95 94.18C122.95 113.66 130.59 123.75 142.13 123.75ZM142.13 114.96C137.24 114.96 133.57 110.07 133.57 94.18C133.57 78.36 137.24 73.78 142.13 73.78C146.94 73.78 150.61 78.36 150.61 94.18C150.61 110.07 146.94 114.96 142.13 114.96ZM192.51 123.75C203.97 123.75 211.61 113.66 211.61 94.18C211.61 74.69 203.97 65.07 192.51 65.07C180.97 65.07 173.33 74.62 173.33 94.18C173.33 113.66 180.97 123.75 192.51 123.75ZM192.51 114.96C187.62 114.96 183.95 110.07 183.95 94.18C183.95 78.36 187.62 73.78 192.51 73.78C197.32 73.78 200.99 78.36 200.99 94.18C200.99 110.07 197.32 114.96 192.51 114.96ZM223.71 122.68H234.86V93.26C237.92 90.05 240.67 88.45 243.12 88.45C247.16 88.45 249.07 90.81 249.07 97.39V122.68H260.31V93.26C263.36 90.05 266.11 88.45 268.56 88.45C272.61 88.45 274.52 90.81 274.52 97.39V122.68H285.75V96.01C285.75 85.24 281.55 78.82 272.46 78.82C266.88 78.82 262.75 82.18 258.85 86.31C256.79 81.57 253.2 78.82 247.09 78.82C241.51 78.82 237.54 81.87 233.95 85.62H233.64L232.88 79.89H223.71ZM325.05 79.35C325.05 74 328.95 70.87 334.3 70.87C339.57 70.87 343.54 74 343.54 79.35C343.54 84.78 339.57 87.83 334.3 87.83C328.95 87.83 325.05 84.78 325.05 79.35ZM353.32 79.35C353.32 69.5 345.14 62.47 334.3 62.47C323.37 62.47 315.19 69.5 315.19 79.35C315.19 89.21 323.37 96.24 334.3 96.24C345.14 96.24 353.32 89.21 353.32 79.35ZM342.47 108.92H353.01V120.31H342.47ZM362.95 108.92H371.43V100.98H324.06V108.92H332.54V120.31H323.52V128.25H372.27V120.31H362.95ZM370.05 74.23V58.88H359.97V97.84H370.05V82.56H379.38V74.23ZM437.7 84.7H408.74V77.44H437.7ZM447.63 61.55H437.7V69.57H408.74V61.55H398.73V92.72H447.63ZM455.2 99.37H391.47V107.39H418.06V129.32H428.15V107.39H455.2ZM477.31 92.19H497.48V84.32H477.31V72.86H499.85V64.76H467.3V113.43H473.03C484.87 113.43 493.89 113.2 504.05 111.6L503.13 103.5C494.5 104.87 486.78 105.26 477.31 105.33ZM513.06 58.8V83.63H500.99V91.73H513.06V129.4H523.15V58.8Z"/></svg>
