<svg xmlns="http://www.w3.org/2000/svg" viewBox="0 0 600 300"><path fill="#ffffff" d="M20 0H580A20 20 0 0 1 600 20V280A20 20 0 0 1 580 300H20A20 20 0 0 1 0 280V20A20 20 0 0 1 20 0Z"/><path fill="#000000" fill-rule="evenodd" d="M20 5H580A15 15 0 0 1 595 20V280A15 15 0 0 1 580 295H20A15 15 0 0 1 5 280V20A15 15 0 0 1 20 5ZM20 10H580A10 10 0 0 1 590 20V280A10 10 0 0 1 580 290H20A10 10 0 0 1 10 280V20A10 10 0 0 1 20 10Z"/><path fill="#000000" d="M132.15 120.03H167.88V110.48H156.72V60.61H147.97C144.2 62.94 140.1 64.46 134.16 65.59V72.9H144.92V110.48H132.15ZM209.89 58.68H199.29V69.44C199.29 83.82 193.19 98.11 180.26 103.65L186.6 112.4C195.44 108.23 201.46 100.28 204.75 90.4C208.04 99.48 213.75 106.78 222.26 110.64L228.28 102.05C215.75 96.67 209.89 83.17 209.89 69.44ZM231.89 52.9V127.1H242.49V52.9ZM258.08 58.52V66.95H282.17C280.49 77.31 271.33 85.9 254.87 90.4L259.29 98.83C281.29 92.49 293.66 78.6 293.66 58.52ZM276.47 100.6H265.87V125.65H316.14V117.22H276.47ZM313.57 73.62V52.98H302.97V105.9H313.57V82.29H323.45V73.62ZM384.41 52.9V127.1H395.01V52.9ZM355.26 58.12C344.09 58.12 335.82 68.24 335.82 84.46C335.82 100.76 344.09 110.96 355.26 110.96C366.42 110.96 374.69 100.76 374.69 84.46C374.69 68.24 366.42 58.12 355.26 58.12ZM355.26 67.68C360.72 67.68 364.49 73.54 364.49 84.46C364.49 95.46 360.72 101.32 355.26 101.32C349.8 101.32 346.02 95.46 346.02 84.46C346.02 73.54 349.8 67.68 355.26 67.68ZM417.98 61.17H407.38V108.95H412.52C419.91 108.95 428.42 108.55 438.06 106.78L437.17 97.87C430.11 99.15 423.76 99.64 417.98 99.8ZM457.73 52.9V81.41H451.07V54.27H441.19V123.41H451.07V90H457.73V126.86H467.85V52.9Z"/><path fill="#000000" d="M135.34 193.42H150.06V184.97H135.42V174.67H124.79V184.97H109.74V193.42H124.79V196C124.79 207.1 119.24 219.66 107.25 225.21L112.96 233.34C121.25 229.64 126.97 222.15 130.19 213.3C133.24 221.51 138.64 228.43 146.52 232.05L152.16 224C140.57 218.45 135.34 206.46 135.34 196ZM177.35 201.71H166.56V172.98H155.94V247.02H166.56V210.48H177.35ZM248.41 189.96H208.17V183.68H247.85V175.39H197.63V198.25H248.41ZM256.22 210.4V202.11H189.26V210.4H217.43V215.15H196.91V222.96H237.63V226.9H196.99V246.46H250.02V238.49H207.53V234.22H248.09V215.15H228.05V210.4ZM332.67 199.22C315.85 196.88 307.32 187.22 307.32 178.61V175.07H295.98V178.61C295.98 187.31 287.53 196.88 270.63 199.22L274.65 207.75C287.61 205.82 296.94 199.78 301.69 191.81C306.44 199.78 315.69 205.82 328.65 207.75ZM335.09 213.22H268.13V221.83H296.06V247.1H306.68V221.83H335.09ZM407.52 172.9H396.82V214.83H407.52ZM367.12 185.53C372.75 185.53 376.94 188.91 376.94 194.47C376.94 200.02 372.75 203.4 367.12 203.4C361.49 203.4 357.38 200.02 357.38 194.47C357.38 188.91 361.49 185.53 367.12 185.53ZM367.12 212.25C378.71 212.25 387.32 204.85 387.32 194.47C387.32 184.09 378.71 176.68 367.12 176.68C355.69 176.68 347 184.09 347 194.47C347 204.85 355.69 212.25 367.12 212.25ZM400.04 217.89H389.57V220.38C389.57 225.85 387.08 232.05 381.12 236.48C375.25 232.37 372.92 226.26 372.92 220.38V217.89H362.61V220.38C362.61 227.54 358.59 234.87 348.77 238.17L354 245.89C360.68 243.48 365.19 239.13 367.77 233.74C370.18 239.37 374.44 244.2 381.21 246.7C387.97 244.04 392.23 239.13 394.64 233.5C397.14 239.13 401.65 243.56 408.65 245.89L413.88 238.17C404.06 235.19 400.04 228.03 400.04 220.38ZM459.27 174.35C442.93 174.35 432.47 179.82 432.47 188.75C432.47 197.77 442.93 203.16 459.27 203.16C475.61 203.16 486.15 197.77 486.15 188.75C486.15 179.82 475.61 174.35 459.27 174.35ZM459.27 182.48C469.41 182.48 475.21 184.57 475.21 188.75C475.21 192.94 469.41 195.03 459.27 195.03C449.21 195.03 443.42 192.94 443.42 188.75C443.42 184.57 449.21 182.48 459.27 182.48ZM433.6 221.03V246.13H484.78V221.03ZM474.32 229.31V237.85H443.98V229.31ZM425.79 207.42V215.79H492.75V207.42Z"/></svg>
