<svg xmlns="http://www.w3.org/2000/svg" viewBox="0 0 600 600"><path fill="#ffffff" d="M20 0H580A20 20 0 0 1 600 20V580A20 20 0 0 1 580 600H20A20 20 0 0 1 0 580V20A20 20 0 0 1 20 0Z"/><path fill="#000000" fill-rule="evenodd" d="M40 25H560A15 15 0 0 1 575 40V560A15 15 0 0 1 560 575H40A15 15 0 0 1 25 560V40A15 15 0 0 1 40 25ZM40 30H560A10 10 0 0 1 570 40V560A10 10 0 0 1 560 570H40A10 10 0 0 1 30 560V40A10 10 0 0 1 40 30Z"/><clipPath id="c"><rect x="30" y="30" width="540" height="440"/></clipPath><path clip-path="url(#c)" fill="none" stroke="#000000" stroke-width="12" d="M-105.62 543.74L669.61 -87.93M-93.62 558.47L681.62 -73.2M-81.62 573.2L693.62 -58.47M-69.61 587.93L705.62 -43.74"/><rect fill="#000000" x="30" y="467.5" width="540" height="5"/><path fill="#000000" d="M191.73 543.42V489.38H201.82V511.37H207.37V488H218V546H207.37V519.76H201.82V543.42ZM158.9 498.79V491.3H182.19V498.79ZM151 510.59V503.1H188.84V510.59ZM152.8 525.57Q152.8 520 157.8 516.67Q162.81 513.35 170.47 513.35Q178.21 513.35 183.17 516.67Q188.14 520 188.14 525.57Q188.14 531.08 183.17 534.41Q178.21 537.73 170.47 537.73Q162.88 537.73 157.84 534.41Q152.8 531.08 152.8 525.57ZM163.67 525.57Q163.67 527.9 165.62 529.25Q167.57 530.6 170.47 530.6Q173.2 530.6 175.24 529.25Q177.27 527.9 177.27 525.57Q177.27 523.11 175.31 521.79Q173.36 520.48 170.47 520.48Q167.5 520.48 165.58 521.82Q163.67 523.17 163.67 525.57Z"/><path fill="#000000" d="M429.69 546V488H441V546ZM403.45 517.24V509.03H413.32V489.56H423.91V543.42H413.32V517.24ZM370 532.46Q385.32 522.75 385.32 508.31V500.7H374.17V493.33H408.35V500.7H397.12V508.07Q397.12 512.33 398.68 516.34Q400.25 520.36 402.81 523.35Q405.38 526.35 407.35 528.14Q409.31 529.94 411.4 531.38L403.37 536.29Q400.57 534.5 396.88 530.72Q393.19 526.95 391.5 523.89Q389.82 527.13 385.8 531.47Q381.79 535.81 378.66 537.61Z"/></svg>
