<svg xmlns="http://www.w3.org/2000/svg" viewBox="0 0 12900 8895"><rect width="12900" height="8895" fill="#a7a5a6"/><g transform="scale(10)"><rect x="40.00" y="40.00" width="50.00" height="200.00" fill="#ffffff"/><rect x="165.00" y="40.00" width="50.00" height="200.00" fill="#ffffff"/><rect x="290.00" y="40.00" width="50.00" height="200.00" fill="#ffffff"/><rect x="415.00" y="40.00" width="50.00" height="200.00" fill="#ffffff"/><rect x="740.00" y="386.00" width="230.00" height="50.00" fill="#ffffff"/><rect x="740.00" y="511.00" width="230.00" height="50.00" fill="#ffffff"/><rect x="740.00" y="636.00" width="230.00" height="50.00" fill="#ffffff"/><rect x="740.00" y="761.00" width="230.00" height="50.00" fill="#ffffff"/><rect x="1020.00" y="323.50" width="230.00" height="50.00" fill="#ffffff"/><rect x="1020.00" y="448.50" width="230.00" height="50.00" fill="#ffffff"/><rect x="1020.00" y="573.50" width="230.00" height="50.00" fill="#ffffff"/><rect x="1020.00" y="698.50" width="230.00" height="50.00" fill="#ffffff"/><path fill="#ffffff" d="M797.00 380.00 L813.00 342.00 L804.00 342.00 L804.00 285.00 L790.00 285.00 L790.00 342.00 L781.00 342.00Z"/><path fill="#ffffff" d="M913.00 380.00 L929.00 342.00 L920.00 342.00 L920.00 285.00 L906.00 285.00 L906.00 342.00 L897.00 342.00Z"/><path fill="#ffffff" d="M1077.00 754.50 L1093.00 792.50 L1084.00 792.50 L1084.00 849.50 L1070.00 849.50 L1070.00 792.50 L1061.00 792.50Z"/><path fill="#ffffff" d="M1193.00 754.50 L1209.00 792.50 L1200.00 792.50 L1200.00 849.50 L1186.00 849.50 L1186.00 792.50 L1177.00 792.50Z"/></g></svg>
